<?xml version="1.0" encoding="utf-8"?>
<!-- Generator: Adobe Illustrator 16.0.0, SVG Export Plug-In . SVG Version: 6.00 Build 0)  -->
<!DOCTYPE svg PUBLIC "-//W3C//DTD SVG 1.1//EN" "http://www.w3.org/Graphics/SVG/1.1/DTD/svg11.dtd">
<svg version="1.1" id="Layer_1" xmlns="http://www.w3.org/2000/svg" xmlns:xlink="http://www.w3.org/1999/xlink" x="0px" y="0px"
	 width="54px" height="54px" viewBox="0 0 54 54" enable-background="new 0 0 54 54" xml:space="preserve">
<path fill="#3CC8C8" d="M27,54c14.912,0,27-12.088,27-27S41.912,0,27,0S0,12.088,0,27S12.088,54,27,54z"/>
<path fill="#FFFFFF" stroke="#FFFFFF" stroke-miterlimit="10" d="M44.301,26.736c-0.048-1.388-0.2-2.766-0.574-4.11
	c-0.159-0.572-0.327-1.145-0.541-1.698c-0.507-1.327-1.155-2.584-1.974-3.75c-0.782-1.115-1.67-2.134-2.687-3.039
	c-1.065-0.945-2.228-1.747-3.488-2.412c-1.26-0.665-2.587-1.145-3.961-1.506c-0.872-0.23-1.766-0.333-2.662-0.412
	c-1.467-0.132-2.926-0.063-4.372,0.179c-1.831,0.306-3.563,0.925-5.204,1.797c-1.518,0.809-2.891,1.813-4.101,3.03
	c-1.899,1.911-3.295,4.138-4.159,6.695c-0.462,1.365-0.747,2.762-0.848,4.198c-0.082,1.174-0.033,2.345,0.105,3.513
	c0.161,1.354,0.496,2.666,0.979,3.936c0.549,1.447,1.292,2.79,2.204,4.04c0.905,1.238,1.959,2.331,3.155,3.288
	c0.859,0.686,1.775,1.284,2.749,1.799c1.001,0.527,2.042,0.958,3.121,1.284c1.615,0.49,3.274,0.7,4.961,0.689
	c1.038-0.01,2.073-0.073,3.093-0.259c1.142-0.208,2.251-0.529,3.328-0.965c1.392-0.563,2.697-1.281,3.899-2.178
	c1.653-1.23,3.046-2.708,4.179-4.432c0.688-1.048,1.252-2.162,1.697-3.332c0.276-0.727,0.496-1.472,0.67-2.23
	C44.179,29.502,44.35,28.128,44.301,26.736z M16.313,15.486c1.725-1.567,3.685-2.727,5.947-3.38
	c-0.767,0.982-1.43,2.015-1.963,3.132c-0.532,1.116-0.923,2.284-1.282,3.473c-0.125,0.02-0.228,0.049-0.331,0.049
	c-1.555,0.002-3.109,0.002-4.663,0.001c-0.101,0-0.202-0.026-0.309-0.042C13.944,18.062,15.202,16.495,16.313,15.486z
	 M26.179,26.148c-0.085,0.022-0.169,0.052-0.254,0.064c-0.089,0.011-0.182,0.003-0.273,0.003c-1.856,0-3.712,0.001-5.567,0
	c-0.165,0-0.333,0.021-0.515-0.051c-0.098-1.15,0.368-4.912,0.707-5.77c0.039-0.01,0.081-0.035,0.123-0.036
	c1.855-0.003,3.711-0.005,5.568-0.004c0.057,0,0.115,0.019,0.194,0.032c0.015,0.094,0.042,0.18,0.042,0.266
	c0.002,1.75,0.002,3.499,0.002,5.249C26.204,25.976,26.189,26.05,26.179,26.148z M26.207,29.318c0,1.264,0.002,2.528,0,3.793
	c0,0.164-0.009,0.329-0.012,0.473c-0.183,0.133-0.356,0.089-0.52,0.089c-1.432,0.003-2.863,0.003-4.293,0.003
	c-0.305,0-0.61,0.004-0.915-0.005c-0.185-0.006-0.241-0.049-0.277-0.236c-0.12-0.627-0.26-1.254-0.338-1.886
	c-0.121-0.982-0.202-1.97-0.289-2.955c-0.022-0.241-0.004-0.484-0.004-0.716c0.16-0.132,0.336-0.085,0.497-0.086
	c1.781-0.003,3.564-0.001,5.345-0.001c0.167,0,0.335-0.003,0.502,0.002c0.073,0.001,0.148,0.017,0.247,0.031
	c0.021,0.108,0.053,0.206,0.053,0.308C26.21,28.527,26.207,28.922,26.207,29.318z M11.638,23.615
	c0.184-0.801,0.413-1.591,0.726-2.354c0.121-0.294,0.252-0.584,0.372-0.857c0.403-0.068,5.417-0.071,5.874,0
	c-0.079,0.4-0.161,0.771-0.223,1.144c-0.066,0.391-0.116,0.784-0.167,1.176c-0.048,0.377-0.091,0.755-0.127,1.135
	c-0.039,0.395-0.067,0.789-0.098,1.183c-0.03,0.375-0.002,0.756-0.072,1.145c-0.152,0.011-0.27,0.027-0.389,0.03
	c-2.848,0.043-5.754,0.021-6.188-0.048c-0.01-0.077-0.037-0.164-0.032-0.248C11.359,25.142,11.463,24.371,11.638,23.615z
	 M12.826,33.669c-0.691-0.92-1.572-4.24-1.488-5.819c0.076-0.018,0.159-0.053,0.243-0.056c0.29-0.008,0.579-0.003,0.868-0.003
	c1.646,0,3.292,0,4.938,0c0.164,0,0.329,0.01,0.458,0.014c0.147,0.144,0.12,0.29,0.123,0.421c0.039,1.359,0.186,2.707,0.386,4.049
	c0.048,0.316,0.121,0.627,0.181,0.941c0.02,0.106,0.037,0.21,0.049,0.315c0.002,0.026-0.02,0.056-0.034,0.093
	c-0.035,0.013-0.076,0.041-0.117,0.041C16.559,33.669,14.686,33.669,12.826,33.669z M17.505,39.535
	c-1.584-1.219-3.48-3.335-3.784-4.243c0.455-0.055,4.874-0.052,5.262,0.006c0.04,0.098,0.091,0.206,0.131,0.317
	c0.235,0.677,0.447,1.359,0.705,2.026c0.551,1.431,1.277,2.764,2.243,3.961c0.058,0.07,0.113,0.144,0.163,0.22
	c0.014,0.021,0.009,0.056,0.011,0.084C21.314,41.835,18.893,40.601,17.505,39.535z M26.207,38.339c0,1.232,0.002,2.467,0,3.7
	c0,0.163,0.027,0.331-0.06,0.509c-0.3-0.017-0.566-0.113-0.824-0.244c-0.96-0.485-1.697-1.223-2.334-2.073
	c-0.884-1.183-1.484-2.511-1.982-3.891c-0.073-0.199-0.146-0.399-0.209-0.604c-0.042-0.126-0.065-0.257-0.107-0.43
	c0.121-0.025,0.18-0.048,0.239-0.048c1.674-0.002,3.349-0.002,5.024-0.001c0.058,0,0.117,0.022,0.164,0.03
	c0.13,0.141,0.088,0.301,0.09,0.447C26.209,36.603,26.207,37.471,26.207,38.339z M26.147,18.723
	c-0.108,0.014-0.226,0.038-0.343,0.038c-1.582,0.003-3.164,0.001-4.746,0c-0.104,0-0.207-0.022-0.341-0.038
	c0.012-0.118,0.004-0.225,0.034-0.316c0.414-1.243,0.891-2.46,1.554-3.595c0.417-0.711,0.895-1.378,1.483-1.959
	c0.49-0.483,1.031-0.9,1.665-1.181c0.217-0.097,0.433-0.226,0.712-0.169c0.015,0.108,0.038,0.21,0.041,0.312
	C26.265,14,26.231,18.307,26.147,18.723z M31.748,12.139c0.02-0.016,0.046-0.047,0.063-0.043c1.282,0.365,2.468,0.948,3.59,1.654
	c1.455,0.914,2.723,2.041,3.809,3.373c0.711,0.873,0.925,1.2,1.063,1.578c-0.039,0.018-0.078,0.049-0.118,0.053
	c-0.324,0.034-4.85,0.006-5.14-0.031c-0.036-0.094-0.087-0.203-0.121-0.315c-0.414-1.339-0.896-2.65-1.566-3.886
	c-0.415-0.763-0.882-1.49-1.448-2.153c-0.048-0.058-0.089-0.122-0.132-0.185C31.741,12.173,31.748,12.155,31.748,12.139z
	 M33.909,26.215c-1.844,0.001-3.687,0-5.53,0c-0.166,0-0.332-0.007-0.518-0.012c-0.026-0.101-0.063-0.185-0.068-0.269
	c-0.01-0.182-0.004-0.365-0.004-0.548c0-1.494-0.001-2.985,0.001-4.479c0-0.165,0.011-0.329,0.018-0.517
	c0.495-0.057,5.547-0.051,5.929,0.004c0.28,0.972,0.4,1.981,0.516,2.991c0.106,0.918,0.194,1.839,0.191,2.763
	C34.24,26.242,34.07,26.213,33.909,26.215z M33.729,33.626c-0.076,0.014-0.162,0.047-0.249,0.047c-1.794,0.003-3.591,0.002-5.386,0
	c-0.075,0-0.148-0.016-0.248-0.027c-0.02-0.105-0.054-0.205-0.055-0.305c-0.007-0.457-0.003-0.914-0.003-1.37
	c0-1.203-0.001-2.406,0.001-3.607c0-0.164,0.01-0.328,0.014-0.457c0.13-0.142,0.258-0.114,0.376-0.114
	c0.548-0.003,1.096-0.001,1.645-0.001c1.354,0,2.708-0.002,4.063,0c0.165,0,0.329,0.011,0.518,0.019
	C34.528,28.798,34.1,32.432,33.729,33.626z M27.86,11.486c0.254-0.025,0.471,0.089,0.689,0.186c0.461,0.207,0.871,0.495,1.257,0.819
	c0.562,0.475,1.033,1.03,1.438,1.642c0.733,1.109,1.325,2.288,1.747,3.553c0.066,0.201,0.146,0.399,0.212,0.602
	c0.041,0.126,0.064,0.259,0.097,0.395c-0.17,0.118-0.342,0.077-0.503,0.078c-1.355,0.004-2.709,0.001-4.063,0.001
	c-0.197,0-0.396,0.003-0.594-0.001c-0.089-0.001-0.179-0.017-0.29-0.029c-0.021-0.09-0.05-0.173-0.059-0.259
	c-0.012-0.09-0.004-0.182-0.004-0.274c0-2.069-0.001-4.138,0.001-6.208C27.79,11.829,27.755,11.658,27.86,11.486z M28.627,42.32
	c-0.233,0.119-0.477,0.193-0.8,0.242c-0.017-0.163-0.034-0.279-0.037-0.397c-0.051-2.997-0.02-6.488,0.063-6.859
	c0.143-0.081,0.314-0.05,0.477-0.051c1.204-0.003,2.407-0.002,3.609-0.002c0.336,0,0.671-0.001,1.005,0.002
	c0.104,0.001,0.207,0.019,0.339,0.031c-0.014,0.12-0.012,0.227-0.042,0.321c-0.35,1.089-0.769,2.146-1.312,3.157
	c-0.386,0.714-0.828,1.382-1.354,1.998C30.024,41.407,29.383,41.937,28.627,42.32z M40.227,35.488
	c-0.343,0.485-0.67,0.983-1.046,1.443c-0.739,0.912-1.582,1.728-2.509,2.455c-0.783,0.613-1.629,1.123-2.504,1.588
	c-0.702,0.375-1.433,0.676-2.189,0.916c-0.067,0.022-0.14,0.031-0.271,0.059c0.074-0.129,0.105-0.211,0.159-0.274
	c1.016-1.22,1.757-2.595,2.319-4.07c0.261-0.684,0.485-1.378,0.729-2.067c0.029-0.085,0.07-0.164,0.102-0.237
	c0.36-0.058,4.739-0.068,5.25-0.014C40.254,35.357,40.261,35.438,40.227,35.488z M41.213,33.641
	c-0.362,0.071-0.742,0.024-1.12,0.032c-0.396,0.009-0.791,0.003-1.188,0.003h-1.141c-0.397,0-0.793,0.006-1.188-0.003
	c-0.375-0.008-0.756,0.043-1.12-0.033c-0.018-0.049-0.041-0.079-0.036-0.105c0.357-1.856,0.538-3.732,0.645-5.619
	c0.001-0.024,0.031-0.049,0.059-0.089c0.044-0.01,0.104-0.032,0.16-0.032c2.073,0,4.143,0,6.214,0.004
	c0.042,0,0.086,0.026,0.125,0.037C42.823,28.827,42.044,32.28,41.213,33.641z M42.646,26.144c-0.115,0.104-0.26,0.07-0.392,0.07
	c-0.821,0.004-1.643,0.002-2.466,0.002c-1.064,0-2.128,0.001-3.195,0c-0.164,0-0.327-0.009-0.518-0.017
	c-0.086-0.4-0.049-0.782-0.081-1.158c-0.031-0.394-0.064-0.788-0.101-1.182c-0.038-0.379-0.075-0.757-0.122-1.134
	c-0.048-0.393-0.103-0.785-0.165-1.177c-0.062-0.373-0.138-0.745-0.212-1.147c0.4-0.06,5.235-0.075,5.795-0.026
	C41.913,21.395,42.755,24.733,42.646,26.144z"/>
</svg>
