<?xml version="1.0" encoding="utf-8"?>
<!-- Generator: Adobe Illustrator 16.0.0, SVG Export Plug-In . SVG Version: 6.00 Build 0)  -->
<!DOCTYPE svg PUBLIC "-//W3C//DTD SVG 1.1//EN" "http://www.w3.org/Graphics/SVG/1.1/DTD/svg11.dtd">
<svg version="1.1" id="Layer_1" xmlns="http://www.w3.org/2000/svg" xmlns:xlink="http://www.w3.org/1999/xlink" x="0px" y="0px"
	 width="54px" height="54px" viewBox="0 0 54 54" enable-background="new 0 0 54 54" xml:space="preserve">
<path fill="#627EEA" d="M54,27C54,12.088,41.912,0,27,0S0,12.088,0,27s12.088,27,27,27S54,41.912,54,27z"/>
<g>
	<path fill="none" stroke="#FFFFFF" stroke-miterlimit="10" d="M27,38.91"/>
</g>
<path fill="#FFFFFF" d="M39.585,15.123c-0.756,0.775-1.517,1.536-2.278,2.304c-0.377,0.364-0.655,0.353-1.041,0.004
	c-0.432-0.387-0.854-0.779-1.316-1.11c-6.494-4.696-15.683-1.6-18.018,6.067c-0.271,0.893-0.452,1.807-0.47,2.794
	c0.542,0,1.063,0.007,1.584-0.004c0.291-0.006,0.531,0.069,0.669,0.341c0.144,0.264,0.031,0.482-0.128,0.701
	c-0.521,0.756-1.043,1.495-1.569,2.235c-0.787,1.133-1.57,2.266-2.361,3.387c-0.334,0.466-0.75,0.466-1.091,0.013
	c-0.058-0.086-0.113-0.16-0.169-0.234c-1.295-1.856-2.589-3.714-3.929-5.625l-0.008-0.542c0.708-0.543,1.538-0.121,2.278-0.311
	c0.093-0.743,0.128-1.503,0.279-2.236c1.133-5.687,4.346-9.757,9.618-12.14c3.19-1.441,6.555-1.704,9.988-0.972
	c3.077,0.664,5.696,2.15,7.951,4.322C39.92,14.45,39.933,14.777,39.585,15.123z M46.756,25.521
	c-0.165-0.255-0.322-0.463-0.479-0.675c-1.158-1.676-2.336-3.343-3.515-5.02c-0.028-0.061-0.079-0.118-0.132-0.177
	c-0.32-0.413-0.728-0.417-1.03,0.019c-1.349,1.901-2.674,3.801-4.003,5.7c-0.156,0.219-0.248,0.47-0.064,0.673
	c0.146,0.155,0.396,0.283,0.604,0.295c0.528,0.05,1.07,0.016,1.621,0.016c-0.073,1.558-0.438,3.009-1.093,4.377
	c-2.033,4.293-6.457,6.954-11.185,6.688c-2.869-0.146-5.366-1.249-7.455-3.233c-0.495-0.475-0.691-0.472-1.181,0.026
	c-0.731,0.718-1.466,1.454-2.193,2.176c-0.37,0.372-0.366,0.68,0.005,1.035c2.524,2.477,5.541,4.007,9.031,4.519
	c8.484,1.264,16.444-4.194,18.364-12.578c0.22-0.964,0.303-1.958,0.464-2.973c0.704-0.207,1.541,0.254,2.256-0.317L46.756,25.521z
	 M610-301.088v73.884c-1.278-0.01-2.551-0.029-3.816-0.029c-384.116-0.011-768.245-0.011-1152.362,0
	c-1.274,0-2.545,0.02-3.821,0.029v-73.884H610z M-496.765-284.205c-0.06-2.964-2.827-5.63-5.784-5.57
	c-2.957,0.057-5.625,2.833-5.574,5.775c0.06,2.962,2.828,5.629,5.783,5.569C-499.392-278.491-496.715-281.258-496.765-284.205z
	 M-467.855-250.643c-0.479,1.491-0.2,2.666,1.568,1.891c0.699-0.303,0.849-1.838,1.328-2.996c-7.941-0.061-10.017,0.559-9.879,3.496
	c0.087,1.745,1.429,4.025,2.907,4.972c2.537,1.631,4.755,0.332,6.273-2.695c-1.679,0.879-3.117,2.258-4.286,2.068
	c-1.458-0.24-3.526-1.589-3.796-2.817c-0.29-1.279,0.919-3.307,2.068-4.346C-471.031-251.629-469.164-250.829-467.855-250.643z
	 M-180.582-283.865c0.129-3.606-2.867-6.862-6.474-7.046c-3.776-0.188-7.132,2.99-7.152,6.786c-0.01,3.656,3.017,6.753,6.679,6.833
	C-183.898-277.223-180.722-280.229-180.582-283.865z M-104.171-284.224c-0.548-2.119-2.977-3.768-5.305-6.495
	c-2.154,2.87-4.924,4.966-4.725,6.733c0.192,1.828,3.227,4.575,5.114,4.655C-107.088-279.243-103.313-280.868-104.171-284.224z
	 M-24.563-290.684H-37.72v13.252h13.157V-290.684z M47.292-289.76c-2.849-0.169-5.794,2.458-5.964,5.345
	c-0.17,2.857,2.438,5.792,5.335,5.964c2.877,0.171,5.794-2.439,5.964-5.334C52.826-286.652,50.199-289.58,47.292-289.76z
	 M131.646-290.599h-13.257v12.957h13.257V-290.599z M287.225-284.567c0-5.521,0-5.521-6.055-5.521
	c-5.804,0.01-5.804,0.01-5.794,5.834c0.01,5.484,0.01,5.484,6.104,5.475C287.225-278.78,287.225-278.78,287.225-284.567z
	 M365.363-284.444c0-5.645,0-5.645-5.944-5.645c-5.923,0.01-5.923,0.01-5.923,5.704c0,5.604,0,5.604,5.984,5.604
	C365.363-278.78,365.363-278.78,365.363-284.444z M385.492-248.682c-1.668-1.199-3.277-2.354-4.745-3.396
	c-1.768,1.208-3.456,2.357-4.765,3.257c0.679,1.916,1.348,3.786,1.858,5.244h5.655C384.176-245.306,384.913-247.213,385.492-248.682
	z M428.658-247.921c-2.059-1.171-3.656-2.56-5.494-3.002c-2.009-0.486-4.236-0.112-7.782-0.112c4.817,3.732,3.446,6.649,0.969,9.566
	c0.27,0.479,0.539,0.971,0.79,1.468c4.024-1.124,8.043-2.256,11.518-3.22V-247.921z M438.547-284.059
	c-0.828-0.915-1.809-2.005-2.497-2.775c-1.188,1.011-2.378,2.039-3.286,2.818c1.008,0.899,2.237,1.988,3.307,2.947
	C436.809-281.962,437.788-283.152,438.547-284.059z M460.186-247.723c0.009-5.813-0.39-6.283-5.664-6.304
	c-6.604-0.02-7.174,0.43-7.192,5.71c-0.03,6.587,0.529,7.257,6.175,7.276C459.766-241.01,460.184-241.409,460.186-247.723z
	 M489.844-248.871c0.21-0.391,0.43-0.78,0.64-1.169c-2.328-1.119-4.904-3.477-6.952-3.077c-2.808,0.548-5.874,3.057-4.985,6.764
	c0.409,1.668,2.677,2.896,4.575,4.805C483.531-248.232,483.531-248.232,489.844-248.871z M495.958-241.079
	c-0.091-4.945-0.919-6.114-5.244-6.204c-4.905-0.09-6.034,0.894-6.084,5.294c-0.08,4.865,0.908,5.845,5.394,6.02
	C493.71-235.835,496.019-236.765,495.958-241.079z M520.449-253.018c-1.225-0.159-2.514,0.07-3.053-0.459
	c-2.818-2.777-5.016,0.799-7.533,0.529c0.25,1.498,0.509,3.007,0.72,4.515c0.02,0.228,0.06,0.45,0.09,0.68
	c0.08,0.684-0.07,1.399-0.09,2.095l0.13-0.164c-0.509,0.757-1.458,1.527-1.419,2.263c0.03,0.603,1.169,1.551,1.888,1.643
	c1.948,0.238,3.949,0.048,5.914,0.118c2.028,0.08,2.748-0.659,3.816-2.669C522.721-247.853,520.103-250.061,520.449-253.018z
	 M555.486-288.001c-7.183-1.778-9.77,1.718-7.883,7.861C555.446-279.229,556.046-279.819,555.486-288.001z M568.6-247.793
	c-0.146-3.985-4.282-7.861-8.156-7.642c-4.018,0.22-7.813,4.385-7.515,8.253c0.271,3.895,4.126,7.511,7.912,7.45
	C564.816-239.811,568.733-243.877,568.6-247.793z M610,317.123v33.965H183.701c-0.66-0.42-1.309-1.22-1.979-1.229
	c-7.572-0.089-15.144-0.1-22.706-0.01c-0.839,0.01-1.648,0.81-2.487,1.239h-7.642c-1.119-0.439-2.219-1.239-3.327-1.253
	c-9.11-0.105-18.202-0.105-27.312,0c-1.109,0.014-2.212,0.813-3.337,1.253h-7.632c-1.108-0.439-2.229-1.239-3.337-1.253
	c-9.09-0.105-18.201-0.105-27.312,0c-1.108,0.014-2.208,0.813-3.316,1.253h-7.652c-1.108-0.439-2.208-1.239-3.321-1.253
	c-9.105-0.105-18.217-0.105-27.308,0c-1.126,0.014-2.228,0.813-3.336,1.253h-7.642c-1.109-0.439-2.218-1.239-3.327-1.253
	c-9.109-0.105-18.211-0.105-27.312,0c-1.112,0.014-2.218,0.813-3.327,1.253h-14.438c-0.666-0.42-1.315-1.22-1.985-1.229
	c-7.572-0.089-15.135-0.1-22.707-0.01c-0.829,0.01-1.648,0.81-2.487,1.239h-7.642c-1.109-0.439-2.218-1.239-3.327-1.253
	c-9.101-0.105-18.21-0.105-27.312,0c-1.109,0.014-2.217,0.813-3.327,1.253h-4.246c-1.258-0.43-2.507-1.239-3.766-1.253
	c-11.068-0.096-22.157-0.096-33.235,0c-1.258,0.014-2.507,0.823-3.759,1.253h-11.043c-0.662-0.42-1.312-1.22-1.984-1.229
	c-7.569-0.089-15.131-0.1-22.703-0.01c-0.83,0.01-1.653,0.81-2.488,1.239H-550v-33.965c146.438,0,292.862-0.02,439.295-0.01
	c237.405,0.01,474.819,0.029,712.223,0.05C604.346,317.163,607.173,317.133,610,317.123z M-530.25,333.176h7.203v-6.023
	c-2.625,0.4-4.935,0.76-7.203,1.109V333.176z M-536.261,333.106h4.742v-4.885c-1.758,0.35-3.219,0.649-4.742,0.948V333.106z
	 M-531.51,334.265h-4.751v4.806c1.536,0.289,2.998,0.571,4.751,0.919V334.265z M-522.978,334.275h-7.343v5.714
	c2.478,0.35,4.775,0.673,7.343,1.028V334.275z M-486.126,332.268c-0.02-1.348-2.258-3.387-3.786-3.677
	c-1.049-0.2-3.557,1.986-3.643,3.232c-0.104,1.563,1.615,3.231,3.233,6.048C-488.23,335.244-486.106,333.745-486.126,332.268z
	 M-470.762,330.02h-2.098c0.259,2.823,0.488,5.354,0.708,7.892c0.141-0.029,0.285-0.06,0.42-0.084
	C-471.411,335.225-471.082,332.619-470.762,330.02z M-405.77,335.934c-1.526-1.089-2.487-2.327-3.256-2.208
	c-0.879,0.13-2.118,1.383-2.228,2.268c-0.09,0.8,1.125,1.738,1.768,2.63C-408.466,337.892-407.458,337.147-405.77,335.934z
	 M-242.018,330.978h-8.792v5.565h8.792V330.978z M-109.256,328.91c-3.905-4.235-7.372-5.523-11.828-4.035
	c-4.422,1.468-6.193,4.936-6.393,9.011c-0.19,4.055,1.913,7.271,5.764,9.061c3.896,1.817,4.816,1.258,5.484-3.287
	c-5.314-0.579-7.152-2.188-6.803-6.014c0.35-3.796,2.318-4.984,7.792-4.745C-113.611,328.989-111.973,328.91-109.256,328.91z
	 M-68.199,339.679c-6.313,1.02-8.94-0.499-11.259-6.433c-0.868,0.999-1.677,1.918-2.548,2.938c-1.197-0.48-2.285-0.899-3.554-1.409
	c0.892,5.294,3.826,8.488,8.352,9.061C-73.543,344.314-70.426,343.306-68.199,339.679z M-24.484,334.318
	c-0.03-10.243-0.03-10.243-10.219-10.243c-9.864,0-9.864,0-9.89,9.67c-0.03,10.439-0.03,10.439,10.379,10.439
	C-24.46,344.175-24.46,344.175-24.484,334.318z M15.005,337.49c-0.1-3.795-0.03-7.593-0.03-11.687H-0.758
	c0,4.025,0.11,7.691-0.03,11.344c-0.109,2.49,1.023,3.182,3.289,3.131c3.114-0.079,6.221-0.04,9.337,0.041
	C13.837,340.369,15.065,339.83,15.005,337.49z M42.837,331.808c0-0.05-1.678-0.33-1.678-0.319c-0.471,2.15-0.87,4.315-1.259,6.482
	c0.669,0.121,1.338,0.24,2.007,0.37C42.237,336.153,42.587,333.978,42.837,331.808z M94.443,339.44
	c-0.13-1.27-1.099-2.549-1.998-3.548c-0.189-0.209-2.607,1.031-2.557,1.299c0.339,1.579,1.113,3.077,1.878,4.94
	c-0.091,0.064-0.765,0.554-1.858,1.354C93.664,343.775,94.683,341.947,94.443,339.44z M99.418,336.813
	c-0.459-0.589-1.798-1.024-2.507-0.798c-0.72,0.227-1.799,1.518-1.639,2.036c0.399,1.339,1.394,2.498,2.247,3.926
	c-0.238,0.155-0.854,0.56-1.468,0.96C99.488,342.496,101.136,339.076,99.418,336.813z M100.971,333.865
	c-0.543-1.199-1.103-2.508-1.699-3.816c-1.861-4.045-6.666-6.543-10.772-5.614c-4.665,1.048-8.24,5.065-8.071,9.551
	c0.109,3.036,0.729,6.033,1.172,9.29c1.813-0.1,3.523-0.18,5.231-0.27c-0.021-0.39-0.04-0.758-0.07-1.129
	c-1.31-0.069-2.617-0.12-3.802-0.189c-0.423-2.237-1.452-4.424-1.043-6.313c0.59-2.817,1.648-5.925,3.535-7.992
	c2.329-2.598,6.035-2.787,8.912-0.669c1.963,1.438,3.166,3.896,5.225,6.572c-2.469,0.261-3.426,0.37-5.301,0.58H100.971z
	 M138.567,327.942h-13.694c0,0.299-0.001,0.599-0.001,0.929c2.486,0.17,4.984,0.35,8.031,0.573
	c-5.135,6.919,2.688,4.811,4.146,7.338c-0.508,0.365-1.029,0.729-1.538,1.119C140.316,335.613,137.769,331.408,138.567,327.942z
	 M183.382,333.296c-0.101-2.039-2.618-5.345-4.416-5.654c-4.824-0.789-9.88-0.26-15.274-0.26c3.687,5.124,3.687,5.124,2.309,5.475
	c0.333,3.106,0.668,6.043,1.028,9.55c2.25,0,4.742-0.01,7.234,0C183.591,342.457,183.871,342.446,183.382,333.296z M406.311,334.202
	c0.23-0.937-1.508-2.364-3.127-4.645c-1.428,2.152-2.797,3.299-2.677,4.287c0.15,1.159,1.794,3.191,2.358,3.058
	C404.223,336.584,406.03,335.364,406.311,334.202z M420.755,336.532h5.645c0.04-1.2,0.11-2.478,0.18-3.955
	C423.192,332.087,420.965,332.606,420.755,336.532z M430.146,330.968h-6.894v0.45c1.888,0.149,3.767,0.29,5.734,0.42v5.594h-7.463
	c0.01,0.27,0.021,0.52,0.03,0.779h8.592V330.968z M522.32,322.327c-1.698-0.361-3.655,0.39-5.645,0.659
	c0.375,1.778,0.84,3.916,1.506,6.923c1.021-1.698,1.571-2.606,2.151-3.536c1.238,0.649,2.487,1.319,3.846,2.048
	C524.758,325.943,526.067,323.167,522.32,322.327z M581.11,339.949c2.437-2.288,4.745-4.475,7.642-7.192v-5.265h-13.426v10.219
	C577.703,338.623,579.807,339.43,581.11,339.949z M590.47,343.565c-0.17-2.793-0.329-5.165-0.469-7.542
	c-0.439-0.141-0.859-0.29-1.278-0.449c-1.069,1.916-2.119,3.839-3.197,5.767C587.123,342.047,588.412,342.627,590.47,343.565z
	 M-97.378,351.088c-1.254-0.435-2.503-1.242-3.762-1.251c-11.077-0.102-22.158-0.102-33.244,0c-1.258,0.009-2.507,0.816-3.754,1.251
	C-124.55,351.088-110.964,351.088-97.378,351.088z M-59.167,351.088c-1.106-0.436-2.216-1.244-3.327-1.253
	c-9.1-0.106-18.21-0.106-27.311,0c-1.111,0.01-2.222,0.817-3.328,1.253C-81.812,351.088-70.489,351.088-59.167,351.088z
	 M148.888,351.088c-1.116-0.436-2.217-1.243-3.327-1.253c-9.11-0.106-18.203-0.106-27.312,0c-1.111,0.009-2.212,0.817-3.337,1.253
	C126.233,351.088,137.56,351.088,148.888,351.088z M107.28,351.088c-1.105-0.436-2.227-1.244-3.337-1.253
	c-9.09-0.106-18.201-0.106-27.312,0c-1.11,0.01-2.211,0.817-3.316,1.253C84.637,351.088,95.959,351.088,107.28,351.088z
	 M65.663,351.088c-1.105-0.436-2.206-1.244-3.321-1.253c-9.104-0.106-18.217-0.106-27.307,0c-1.127,0.01-2.231,0.817-3.337,1.253
	C43.02,351.088,54.342,351.088,65.663,351.088z M24.056,351.088c-1.108-0.436-2.216-1.243-3.327-1.253
	c-9.109-0.106-18.211-0.106-27.312,0c-1.112,0.009-2.221,0.817-3.327,1.253C1.413,351.088,12.735,351.088,24.056,351.088z
	 M-149.182,351.088c-0.663-0.425-1.316-1.219-1.984-1.229c-7.568-0.088-15.131-0.103-22.7-0.014
	c-0.833,0.012-1.655,0.813-2.49,1.242C-167.299,351.088-158.242,351.088-149.182,351.088z M-24.347,351.088
	c-0.667-0.425-1.32-1.219-1.986-1.229c-7.57-0.088-15.134-0.103-22.703-0.014c-0.833,0.012-1.653,0.813-2.49,1.242
	C-42.468,351.088-33.409,351.088-24.347,351.088z M183.701,351.088c-0.66-0.425-1.313-1.219-1.98-1.229
	c-7.57-0.088-15.142-0.103-22.701-0.014c-0.842,0.012-1.654,0.813-2.49,1.242C165.587,351.088,174.644,351.088,183.701,351.088z
	 M-24.566-290.682c-4.535,0-8.803,0-13.151,0c0,4.532,0,8.809,0,13.25c4.422,0,8.603,0,13.151,0
	C-24.566-282.061-24.566-286.329-24.566-290.682z M568.6-247.793c0.134,3.916-3.783,7.982-7.759,8.062
	c-3.786,0.061-7.642-3.556-7.912-7.45c-0.299-3.868,3.497-8.033,7.515-8.253C564.317-255.654,568.453-251.778,568.6-247.793z
	 M564.629-244.227c-0.182-2.587-0.334-4.714-0.491-6.833c-0.45-0.229-0.909-0.459-1.359-0.688c-0.619,1.028-1.218,2.067-1.837,3.092
	c-1.07-0.935-1.999-1.758-3.617-3.162v7.592H564.629z M-180.584-283.862c0.132-3.605-2.865-6.868-6.469-7.048
	c-3.78-0.189-7.135,2.993-7.154,6.788c-0.009,3.655,3.015,6.754,6.678,6.828C-183.903-277.219-180.718-280.231-180.584-283.862z
	 M131.646-290.599v12.957h-13.257v-12.957H131.646z M125.213-283.836c0.248-0.759,0.566-1.694,0.928-2.829
	c1.019-0.281,2.048-0.564,3.076-0.849c-0.129-0.507-0.259-0.997-0.379-1.496c-1.669,0.421-4.126,0.31-4.855,1.384
	C122.524-285.464,123.763-284.665,125.213-283.836c-0.431,1.251-0.711,2.043-0.95,2.488c-0.409,0.02-0.819,0.05-1.249,0.069
	c0.56,0.489,0.829,0.72,1.249-0.069c1.159-0.07,2.208-0.14,3.416-0.218C127.339-282.667,126.232-283.265,125.213-283.836z
	 M365.363-284.444c0,5.664,0,5.664-5.883,5.664c-5.984,0-5.984,0-5.984-5.604c0-5.694,0-5.694,5.923-5.704
	C365.363-290.089,365.363-290.089,365.363-284.444z M362.066-282.207c-0.094-1.419-0.2-2.837-0.35-5.145
	c-1.199,1.408-1.798,2.128-2.587,3.057c-0.446-1.199-0.79-2.527-0.939-2.527c-4.525,0.739,1.229,3.736-2.397,5.145
	C358.71-281.918,360.328-282.057,362.066-282.207z M287.225-284.567c0,5.787,0,5.787-5.745,5.787
	c-6.094,0.01-6.094,0.01-6.104-5.475c-0.01-5.824-0.01-5.824,5.794-5.834C287.225-290.089,287.225-290.089,287.225-284.567z
	 M283.917-282.207c-0.089-1.379-0.17-2.807-0.299-5.005c-1.22,1.285-1.918,2.017-2.617,2.747c-0.2-0.12-0.4-0.239-0.593-0.359
	c0.143-0.59,0.313-1.179,0.492-1.878c-5.754-0.37,0.519,4.035-1.978,4.875C280.531-281.947,282.148-282.073,283.917-282.207z
	 M495.958-241.079c0.061,4.314-2.248,5.244-5.935,5.109c-4.485-0.175-5.474-1.154-5.394-6.02c0.05-4.4,1.179-5.384,6.084-5.294
	C495.039-247.193,495.867-246.024,495.958-241.079z M492.312-239.222c-0.39-1.679-0.76-3.356-1.139-5.035
	c-1.398,1.265-2.787,2.519-4.186,3.776c0.274,0.657,0.529,1.299,0.809,1.958C489.301-238.762,490.793-238.991,492.312-239.222z
	 M460.186-247.723c-0.002,6.313-0.42,6.713-6.682,6.683c-5.646-0.02-6.205-0.689-6.175-7.276c0.019-5.28,0.589-5.729,7.192-5.71
	C459.796-254.006,460.194-253.536,460.186-247.723z M458.366-247.853c-0.459-1.778-2.823-3.956-4.654-4.313
	c-2.837-0.552-4.785,1.686-4.766,4.653c0.021,3.05,1.959,4.521,5.011,4.576C456.969-243.207,459.086-245.025,458.366-247.853z
	 M417.137-240.003c4.025-1.124,8.047-2.251,11.52-3.217c0-2.265,0-3.909,0-4.701c-2.053-1.171-3.655-2.556-5.488-3.002
	c-2.016-0.491-4.238-0.112-7.791-0.112c4.822,3.73,3.447,6.647,0.979,9.563C416.621-240.986,416.889-240.498,417.137-240.003z
	 M-114.201-283.982c0.195,1.829,3.224,4.569,5.113,4.653c2.002,0.087,5.775-1.543,4.92-4.895c-0.548-2.124-2.984-3.769-5.309-6.496
	C-111.63-287.849-114.398-285.756-114.201-283.982z M52.627-283.785c-0.17,2.895-3.087,5.505-5.964,5.334
	c-2.897-0.172-5.505-3.106-5.335-5.964c0.17-2.887,3.115-5.514,5.964-5.345C50.199-289.58,52.826-286.652,52.627-283.785z
	 M51.938-282.277c-0.229-0.51-0.46-1.019-0.689-1.528c-2.387-0.705-5.324-0.938-3.687-4.994c-0.359-0.129-0.709-0.25-1.058-0.38
	c-1.494,1.318-2.988,2.637-5.066,4.455c2.439,0.79,3.697,1.209,5.176,1.686c-0.471,1.129-0.84,2.038-1.229,2.945l0.849,1.123
	C48.131-280.069,50.039-281.17,51.938-282.277z M-496.765-284.205c0.05,2.947-2.626,5.714-5.575,5.774
	c-2.956,0.06-5.723-2.607-5.783-5.569c-0.05-2.942,2.618-5.719,5.574-5.775C-499.592-289.835-496.825-287.169-496.765-284.205z
	 M-498.074-283.608c-2.118-1.037-5.814-0.707-3.676-5.163c-0.379-0.109-0.76-0.22-1.148-0.33c-1.48,1.289-2.958,2.578-4.99,4.346
	c2.422,0.807,3.686,1.219,5.12,1.698c-0.43,1.139-0.79,2.056-1.207,3.157C-500.551-279.2-498.593-280.119-498.074-283.608z
	 M490.484-250.042c-2.326-1.122-4.91-3.473-6.949-3.076c-2.813,0.55-5.882,3.06-4.994,6.761c0.414,1.672,2.687,2.903,4.585,4.812
	c0.405-6.691,0.405-6.691,6.714-7.329C490.055-249.264,490.27-249.653,490.484-250.042z M510.583-252.414
	c2.296,0,5.61-0.905,7.676,0.305c1.418,0.847,1.379,4.599,1.456,7.075c0.031,0.778-1.533,2.032-2.572,2.323
	c-1.449,0.402-3.072,0.108-4.623,0.111c-2.544,0.004-2.889-1.207-1.807-3.223c-0.512,0.759-1.463,1.531-1.421,2.262
	c0.036,0.605,1.166,1.556,1.887,1.644c1.949,0.241,3.952,0.052,5.916,0.12c2.029,0.082,2.744-0.66,3.815-2.672
	c1.807-3.383-0.81-5.596-0.461-8.549c-1.228-0.159-2.51,0.066-3.053-0.463c-2.821-2.771-5.011,0.805-7.533,0.529
	c0.282,1.736,0.597,3.456,0.811,5.198c0.08,0.683-0.066,1.395-0.091,2.094C510.583-247.55,510.583-249.442,510.583-252.414z
	 M385.492-248.682c-0.579,1.469-1.316,3.376-1.996,5.104h-5.655c-0.511-1.458-1.18-3.328-1.858-5.244
	c1.309-0.899,2.997-2.049,4.765-3.257C382.215-251.035,383.824-249.881,385.492-248.682z M383.685-248.043
	c-1.139-0.818-2.019-1.458-3.007-2.157c-0.939,0.699-1.928,1.428-3.887,2.887c2.174,0.909,3.717,1.759,5.346,2.068
	C382.477-245.186,383.204-247.134,383.685-248.043z M547.604-280.14c-1.887-6.144,0.7-9.64,7.883-7.861
	C556.046-279.819,555.446-279.229,547.604-280.14z M552.738-285.811c-1.703,0.106-3.064,0.187-4.515,0.275v4.847
	c1.848-0.11,3.207-0.197,4.515-0.27V-285.811z M-469.941-243.902c-1.46-0.242-3.525-1.597-3.801-2.822
	c-0.291-1.275,0.919-3.303,2.076-4.341c0.637-0.568,2.502,0.24,3.815,0.425c-0.479,1.484-0.201,2.664,1.567,1.886
	c0.698-0.302,0.849-1.838,1.326-2.998c-7.941-0.061-10.016,0.563-9.876,3.501c0.083,1.745,1.427,4.021,2.904,4.972
	c2.542,1.629,4.753,0.331,6.274-2.691C-467.338-245.093-468.771-243.715-469.941-243.902z M432.76-284.02
	c1.013,0.899,2.239,1.993,3.31,2.951c0.741-0.892,1.717-2.085,2.476-2.993c-0.824-0.911-1.807-1.998-2.495-2.775
	C434.861-285.825,433.671-284.798,432.76-284.02z M-34.706,324.078c-9.862,0.002-9.862,0.002-9.889,9.669
	c-0.029,10.434-0.029,10.434,10.377,10.433c9.758-0.001,9.758-0.001,9.737-9.861C-24.512,324.076-24.512,324.076-34.706,324.078z
	 M174.263,342.408c9.328,0.049,9.607,0.035,9.123-9.112c-0.106-2.039-2.617-5.346-4.417-5.652c-4.825-0.794-9.887-0.26-15.272-0.26
	c3.684,5.122,3.684,5.122,2.305,5.473c0.333,3.104,0.663,6.043,1.028,9.55C169.278,342.406,171.771,342.396,174.263,342.408z
	 M15.005,337.49c0.06,2.34-1.168,2.879-3.167,2.829c-3.117-0.081-6.224-0.12-9.337-0.041c-2.266,0.051-3.398-0.641-3.289-3.131
	c0.14-3.652,0.03-7.318,0.03-11.344h15.734C14.976,329.897,14.906,333.695,15.005,337.49z M7.962,335.788
	c-0.939-2.522-1.738-4.659-2.537-6.799c-0.432,0.041-0.879,0.11-1.319,0.151c-0.459,1.779-0.918,3.556-1.368,5.294
	C4.406,334.882,5.775,335.225,7.962,335.788z M-121.087,324.873c-4.417,1.471-6.195,4.937-6.393,9.011
	c-0.187,4.057,1.916,7.271,5.765,9.061c3.901,1.819,4.82,1.264,5.485-3.283c-5.314-0.577-7.156-2.189-6.805-6.018
	c0.351-3.798,2.323-4.985,7.797-4.743c1.625,0.085,3.262,0.014,5.98,0.014C-113.159,324.675-116.632,323.39-121.087,324.873z
	 M575.328,327.495c0,3.681,0,7.154,0,10.212c2.378,0.916,4.478,1.726,5.781,2.246c2.441-2.296,4.749-4.483,7.644-7.2
	c0-0.909,0-2.855,0-5.258C584.119,327.495,579.821,327.495,575.328,327.495z M-77.205,343.836c3.662,0.479,6.781-0.532,9.005-4.158
	c-6.308,1.022-8.935-0.503-11.258-6.437c-0.873,1.003-1.674,1.927-2.549,2.938c-1.196-0.474-2.285-0.896-3.553-1.399
	C-84.667,340.065-81.729,343.263-77.205,343.836z M124.873,327.942c0,0.301,0,0.603-0.005,0.925c2.492,0.176,4.985,0.353,8.04,0.579
	c-5.141,6.916,2.688,4.812,4.137,7.341c-0.504,0.36-1.026,0.729-1.538,1.109c4.81-2.285,2.265-6.49,3.065-9.954
	C133.52,327.942,129.195,327.942,124.873,327.942z M81.921,335.377c0.59-2.819,1.648-5.93,3.527-7.995
	c2.327-2.593,6.038-2.782,8.918-0.666c1.96,1.431,3.166,3.892,5.22,6.567c-2.467,0.268-3.421,0.373-5.299,0.582
	c2.997,0,5.068,0,6.684,0c-0.542-1.2-1.104-2.509-1.699-3.817c-1.856-4.044-6.663-6.538-10.774-5.608
	c-4.665,1.043-8.235,5.059-8.065,9.549c0.107,3.033,0.729,6.026,1.168,9.288c1.813-0.096,3.519-0.185,5.229-0.272
	c-0.018-0.383-0.035-0.756-0.063-1.13c-1.313-0.07-2.619-0.121-3.806-0.184C82.532,339.446,81.508,337.264,81.921,335.377z
	 M-486.128,332.264c-0.014-1.343-2.252-3.383-3.785-3.678c-1.049-0.197-3.558,1.991-3.641,3.239
	c-0.101,1.558,1.617,3.228,3.231,6.048C-488.23,335.241-486.102,333.743-486.128,332.264z M-522.982,341.019
	c0-2.452,0-4.495,0-6.739c-2.518,0-4.841,0-7.337,0c0,1.977,0,3.755,0,5.71C-527.846,340.337-525.547,340.662-522.982,341.019z
	 M-523.045,327.15c-2.626,0.397-4.936,0.757-7.208,1.11c0,1.832,0,3.297,0,4.914c2.487,0,4.696,0,7.208,0
	C-523.045,330.976-523.045,329.218-523.045,327.15z M524.178,328.419c0.582-2.476,1.889-5.249-1.862-6.091
	c-1.696-0.365-3.649,0.386-5.642,0.657c0.377,1.781,0.841,3.919,1.506,6.92c1.027-1.69,1.577-2.6,2.154-3.537
	C521.575,327.026,522.818,327.688,524.178,328.419z M400.508,333.846c0.146,1.155,1.793,3.191,2.357,3.061
	c1.357-0.322,3.163-1.538,3.443-2.704c0.231-0.94-1.505-2.369-3.129-4.646C401.752,331.71,400.388,332.857,400.508,333.846z
	 M-536.26,334.266c0,1.651,0,3.13,0,4.802c1.532,0.296,2.995,0.575,4.751,0.924c0-2.046,0-3.775,0-5.726
	C-533.123,334.266-534.587,334.266-536.26,334.266z M94.442,339.439c-0.125-1.27-1.097-2.546-1.996-3.543
	c-0.191-0.216-2.608,1.026-2.561,1.294c0.342,1.582,1.116,3.077,1.879,4.941c0.061-0.05-0.628,0.453-1.857,1.356
	C93.664,343.774,94.687,341.945,94.442,339.439z M-409.028,333.722c-0.879,0.132-2.115,1.387-2.224,2.275
	c-0.096,0.793,1.125,1.738,1.763,2.626c1.019-0.735,2.037-1.476,3.719-2.689C-407.295,334.84-408.255,333.609-409.028,333.722z
	 M99.413,336.811c-0.457-0.587-1.79-1.022-2.501-0.796c-0.722,0.227-1.796,1.521-1.638,2.033c0.397,1.343,1.392,2.501,2.247,3.934
	c-0.244,0.152-0.855,0.56-1.468,0.951C99.488,342.494,101.134,339.076,99.413,336.811z M588.719,335.571
	c-1.068,1.919-2.117,3.842-3.194,5.768c1.6,0.712,2.887,1.291,4.945,2.229c-0.169-2.794-0.328-5.17-0.468-7.543
	C589.562,335.887,589.141,335.729,588.719,335.571z M-536.259,329.166c0,1.395,0,2.578,0,3.944c1.675,0,3.146,0,4.738,0
	c0-1.654,0-3.111,0-4.89C-533.279,328.571-534.736,328.871-536.259,329.166z M41.905,338.339c0.333-2.182,0.678-4.36,0.931-6.535
	c0.005-0.046-1.674-0.322-1.678-0.312c-0.468,2.146-0.869,4.311-1.258,6.475C40.568,338.092,41.236,338.215,41.905,338.339z
	 M-242.018,330.978v5.565h-8.792v-5.565H-242.018z M-242.868,331.747h-7.419c0.167,1.559,0.285,2.728,0.396,3.817h7.022V331.747z
	 M426.576,332.58c-3.387-0.493-5.613,0.023-5.824,3.949c1.849,0,3.512,0,5.645,0C426.443,335.332,426.514,334.053,426.576,332.58z
	 M421.522,337.431c0.012,0.268,0.024,0.516,0.034,0.784c2.627,0,5.271,0,8.587,0c0-2.468,0-4.884,0-7.245c-2.74,0-4.825,0-6.891,0
	c0,0.158,0,0.295,0,0.452c1.885,0.144,3.771,0.286,5.732,0.417c0,1.91,0,3.444,0,5.592
	C426.5,337.431,424.011,337.431,421.522,337.431z M-472.147,337.914c0.136-0.034,0.28-0.067,0.418-0.087
	c0.321-2.603,0.651-5.208,0.972-7.806c-0.518,0-1.756,0-2.101,0C-472.603,332.843-472.375,335.37-472.147,337.914z M564.138-251.056
	c-0.453-0.232-0.905-0.465-1.358-0.697c-0.622,1.038-1.224,2.074-1.838,3.096c-1.07-0.933-2.004-1.756-3.618-3.162
	c0,3.07,0,5.212,0,7.597c2.249,0,4.479,0,7.308,0C564.445-246.812,564.295-248.938,564.138-251.056z M126.146-286.667
	c1.013-0.28,2.043-0.564,3.072-0.846c-0.13-0.504-0.26-1.001-0.38-1.498c-1.668,0.424-4.128,0.313-4.852,1.384
	c-2.489,3.692,2.869,3.399,3.69,6.062c-1.617,0.104-2.99,0.186-4.668,0.288C124.08-280.346,124.08-280.346,126.146-286.667z
	 M358.187-286.817c-4.521,0.729,1.236,3.734-2.396,5.145c2.918-0.245,4.537-0.389,6.272-0.534c-0.093-1.414-0.201-2.836-0.342-5.144
	c-1.203,1.404-1.803,2.123-2.592,3.06C358.684-285.503,358.33-286.834,358.187-286.817z M283.918-282.205
	c-0.092-1.38-0.172-2.812-0.305-5.002c-1.213,1.28-1.912,2.012-2.612,2.743c-0.197-0.119-0.396-0.238-0.593-0.358
	c0.146-0.594,0.313-1.177,0.494-1.878c-5.758-0.37,0.514,4.033-1.977,4.873C280.528-281.951,282.149-282.073,283.918-282.205z
	 M487.796-238.526c1.505-0.231,3.002-0.464,4.512-0.694c-0.385-1.678-0.751-3.359-1.137-5.034c-1.4,1.26-2.782,2.514-4.184,3.774
	C487.26-239.825,487.521-239.181,487.796-238.526z M453.957-242.937c-3.052-0.056-4.99-1.526-5.011-4.576
	c-0.02-2.968,1.929-5.205,4.766-4.653c1.831,0.357,4.195,2.535,4.654,4.313C459.086-245.025,456.969-243.207,453.957-242.937z
	 M455.939-247.469c0.03-0.795-1.219-2.162-2.098-2.318c-0.793-0.144-1.818,0.976-3.526,2.015c1.603,1.211,2.507,2.438,3.326,2.387
	C454.511-245.445,455.909-246.704,455.939-247.469z M51.245-283.808c-2.384-0.702-5.321-0.938-3.688-4.996
	c-0.351-0.126-0.7-0.25-1.051-0.381c-1.497,1.324-2.993,2.639-5.07,4.464c2.44,0.79,3.701,1.205,5.172,1.682
	c-0.466,1.127-0.835,2.038-1.22,2.946c0.289,0.376,0.559,0.746,0.848,1.125c1.899-1.105,3.8-2.202,5.7-3.308
	C51.706-282.787,51.476-283.297,51.245-283.808z M-498.072-283.609c-2.119-1.038-5.813-0.702-3.681-5.16
	c-0.378-0.111-0.756-0.224-1.145-0.334c-1.481,1.29-2.962,2.58-4.993,4.347c2.422,0.807,3.687,1.223,5.12,1.704
	c-0.432,1.137-0.784,2.052-1.206,3.147C-500.551-279.198-498.59-280.121-498.072-283.609z M510.713-245.822
	c-1.082,2.016-0.737,3.227,1.807,3.223c1.551-0.003,3.174,0.291,4.623-0.111c1.039-0.291,2.604-1.545,2.572-2.323
	c-0.077-2.477-0.038-6.229-1.456-7.075c-2.065-1.21-5.38-0.305-7.676-0.305c0,2.972,0,4.864,0,6.755
	C510.583-245.659,510.713-245.82,510.713-245.822z M382.14-245.246c0.335,0.064,1.061-1.889,1.544-2.795
	c-1.137-0.824-2.017-1.464-3.001-2.161c-0.939,0.698-1.932,1.43-3.893,2.888C378.965-246.404,380.504-245.555,382.14-245.246z
	 M552.74-280.955c0-1.752,0-3.216,0-4.854c-1.705,0.107-3.064,0.182-4.518,0.272c0,1.642,0,3.001,0,4.845
	C550.072-280.8,551.435-280.885,552.74-280.955z M5.428,328.991c-0.436,0.044-0.881,0.105-1.316,0.148
	c-0.46,1.78-0.92,3.559-1.372,5.295c1.667,0.445,3.032,0.79,5.223,1.354C7.023,333.268,6.226,331.131,5.428,328.991z
	 M-249.892,335.567c2.536,0,4.716,0,7.02,0c0-1.361,0-2.502,0-3.82c-2.43,0-4.61,0-7.413,0
	C-250.12,333.311-250.003,334.474-249.892,335.567z M453.638-245.39c0.875-0.053,2.27-1.311,2.301-2.079
	c0.032-0.796-1.22-2.166-2.092-2.318c-0.798-0.14-1.826,0.979-3.529,2.015C451.918-246.561,452.824-245.339,453.638-245.39z"/>
</svg>
