<?xml version="1.0" encoding="utf-8"?>
<!-- Generator: Adobe Illustrator 16.0.0, SVG Export Plug-In . SVG Version: 6.00 Build 0)  -->
<!DOCTYPE svg PUBLIC "-//W3C//DTD SVG 1.1//EN" "http://www.w3.org/Graphics/SVG/1.1/DTD/svg11.dtd">
<svg version="1.1" id="Layer_1" xmlns="http://www.w3.org/2000/svg" xmlns:xlink="http://www.w3.org/1999/xlink" x="0px" y="0px"
	 width="54px" height="54px" viewBox="0 0 54 54" enable-background="new 0 0 54 54" xml:space="preserve">
<path fill="#F7931A" d="M53.197,33.535c-1.293,5.182-4.092,9.863-8.045,13.453s-8.883,5.927-14.164,6.715
	c-5.28,0.789-10.677-0.006-15.506-2.283c-4.83-2.277-8.875-5.938-11.625-10.514c-2.75-4.578-4.082-9.867-3.825-15.201
	c0.256-5.333,2.088-10.471,5.264-14.764c3.176-4.292,7.554-7.547,12.579-9.352C22.9-0.216,28.35-0.49,33.529,0.801
	c3.441,0.858,6.68,2.385,9.529,4.494c2.853,2.109,5.258,4.76,7.084,7.799c1.828,3.04,3.037,6.41,3.562,9.917
	C54.229,26.519,54.057,30.095,53.197,33.535z"/>
<g>
	<polyline fill="none" stroke="#FFFFFF" stroke-width="7" stroke-miterlimit="10" points="41.324,18.523 23.831,34.626 
		13.657,24.806 	"/>
</g>
</svg>
