<?xml version="1.0" encoding="utf-8"?>
<!-- Generator: Adobe Illustrator 16.0.0, SVG Export Plug-In . SVG Version: 6.00 Build 0)  -->
<!DOCTYPE svg PUBLIC "-//W3C//DTD SVG 1.1//EN" "http://www.w3.org/Graphics/SVG/1.1/DTD/svg11.dtd">
<svg version="1.1" id="Layer_1" xmlns="http://www.w3.org/2000/svg" xmlns:xlink="http://www.w3.org/1999/xlink" x="0px" y="0px"
	 width="54px" height="54px" viewBox="0 0 54 54" enable-background="new 0 0 54 54" xml:space="preserve">
<path fill="#F0B90B" d="M27,0c5.34,0,10.561,1.584,15,4.551c4.439,2.967,7.9,7.184,9.943,12.117
	c2.043,4.934,2.578,10.362,1.537,15.6c-1.043,5.238-3.614,10.049-7.392,13.824c-3.774,3.775-8.587,6.348-13.823,7.391
	c-5.238,1.041-10.667,0.508-15.601-1.537c-4.934-2.043-9.15-5.504-12.117-9.942C1.582,37.563,0,32.341,0,27
	c0-3.545,0.698-7.057,2.055-10.333s3.346-6.252,5.853-8.76c2.507-2.508,5.484-4.496,8.76-5.853S23.455,0,27,0z"/>
<g>
	<g>
		<path display="none" fill="#FFFFFF" stroke="#FFFFFF" stroke-miterlimit="10" d="M44.06,32.617
			c-0.143-0.211-0.308-0.412-0.489-0.593c-1.382-1.362-3.012-1.781-4.875-1.23c-0.516,0.152-1.019,0.361-1.52,0.557
			c-1.019,0.398-2.035,0.805-3.053,1.206c-0.071,0.027-0.149,0.035-0.247,0.058c-0.074-0.193-0.144-0.368-0.21-0.543
			c-0.233-0.625-0.626-1.128-1.163-1.522c-0.499-0.369-1.072-0.562-1.668-0.703c-0.514-0.122-1.04-0.148-1.564-0.194
			c-1.804-0.156-3.605-0.328-5.406-0.486c-1.965-0.174-3.929-0.334-5.894-0.507c-0.252-0.022-0.512-0.019-0.77-0.123
			c-0.012-0.091-0.029-0.184-0.034-0.273c-0.01-0.148-0.006-0.297-0.017-0.445c-0.018-0.292-0.147-0.522-0.417-0.646
			c-0.246-0.111-0.492-0.223-0.75-0.3c-0.834-0.248-1.699-0.313-2.562-0.359c-1.39-0.076-2.781,0.003-4.17,0.062
			c-0.108,0.004-0.218,0.012-0.323,0.033c-0.393,0.077-0.631,0.38-0.618,0.782c0.002,0.094,0.018,0.188,0.03,0.281l1.62,12.419
			c0.014,0.107,0.024,0.216,0.052,0.32c0.09,0.342,0.353,0.551,0.706,0.562c0.107,0.003,0.215-0.011,0.322-0.025
			c1.3-0.168,2.599-0.339,3.898-0.509c0.067-0.009,0.135-0.016,0.201-0.028c0.341-0.066,0.554-0.264,0.622-0.607
			c0.037-0.186,0.069-0.373,0.109-0.558c0.016-0.075,0.046-0.149,0.076-0.238c0.081,0.012,0.146,0.017,0.21,0.03
			c0.849,0.159,1.698,0.318,2.547,0.48c0.902,0.172,1.804,0.34,2.707,0.514c1.219,0.235,2.438,0.476,3.656,0.714
			c0.915,0.18,1.833,0.344,2.742,0.543c0.988,0.217,1.956,0.162,2.922-0.116c0.576-0.165,1.117-0.409,1.647-0.675
			c0.882-0.438,1.748-0.91,2.615-1.381c1.306-0.708,2.556-1.513,3.819-2.29c1.394-0.857,2.778-1.721,4.167-2.582
			c0.287-0.179,0.579-0.349,0.858-0.538C44.242,33.434,44.329,33.015,44.06,32.617z M15.083,34.892
			c-0.147,1.042-0.33,2.079-0.496,3.117c-0.028,0.174-0.05,0.348-0.082,0.521c-0.028,0.158-0.064,0.315-0.104,0.51
			c-1.023,0.149-2.012,0.269-3.001,0.398c-0.038-0.104-0.069-0.165-0.081-0.229c-0.021-0.104-0.032-0.211-0.046-0.318
			c-0.449-3.441-0.898-6.884-1.347-10.326c-0.022-0.17-0.062-0.342-0.036-0.508c0.172-0.094,0.337-0.074,0.497-0.083
			c1.133-0.063,2.267-0.028,3.399,0.025c0.431,0.02,0.861,0.071,1.288,0.127c0.197,0.025,0.389,0.096,0.573,0.142
			c0.088,0.195,0.07,0.374,0.059,0.545c-0.055,0.863-0.097,1.726-0.189,2.584C15.395,32.564,15.246,33.729,15.083,34.892z
			 M42.149,33.016c-0.409,0.265-0.819,0.526-1.231,0.782c-1.134,0.706-2.267,1.417-3.405,2.116c-0.862,0.53-1.728,1.056-2.6,1.568
			c-0.675,0.397-1.352,0.793-2.047,1.152s-1.401,0.704-2.124,1c-0.869,0.354-1.772,0.429-2.703,0.229
			c-1.306-0.279-2.62-0.529-3.93-0.787c-1.073-0.211-2.147-0.414-3.221-0.621c-1.443-0.281-2.888-0.563-4.332-0.844
			c-0.104-0.02-0.209-0.049-0.321-0.074c-0.078-0.19-0.024-0.336-0.003-0.48c0.127-0.868,0.273-1.734,0.387-2.604
			c0.154-1.15,0.287-2.305,0.423-3.457c0.025-0.214,0.024-0.433,0.04-0.647c0.007-0.091,0.029-0.181,0.047-0.285
			c0.063-0.009,0.115-0.025,0.166-0.021c1.653,0.147,3.308,0.297,4.961,0.442c1.439,0.127,2.878,0.245,4.317,0.373
			c1.103,0.097,2.206,0.188,3.307,0.308c0.454,0.048,0.905,0.135,1.334,0.318c0.571,0.245,0.949,0.653,1.142,1.239
			c0.046,0.141,0.121,0.272,0.088,0.45c-0.059,0.032-0.124,0.075-0.196,0.105c-0.34,0.135-0.68,0.264-1.019,0.4
			c-0.587,0.236-1.195,0.316-1.825,0.272c-1.697-0.118-3.394-0.229-5.092-0.343c-0.35-0.024-0.701-0.051-1.052-0.062
			c-0.131-0.005-0.271,0.009-0.394,0.053c-0.328,0.12-0.49,0.398-0.451,0.73c0.041,0.357,0.269,0.592,0.623,0.642
			c0.108,0.014,0.216,0.021,0.324,0.028c1.44,0.095,2.882,0.191,4.324,0.282c0.755,0.047,1.51,0.085,2.264,0.12
			c0.41,0.02,0.812-0.037,1.2-0.163c0.396-0.129,0.791-0.269,1.182-0.419c0.757-0.289,1.512-0.587,2.266-0.883
			c1.093-0.43,2.184-0.863,3.278-1.291c0.438-0.173,0.877-0.352,1.326-0.501c0.227-0.073,0.473-0.112,0.713-0.126
			c0.901-0.052,1.705,0.193,2.404,0.83C42.257,32.914,42.21,32.978,42.149,33.016z"/>
		<path fill="#FFFFFF" stroke="#FFFFFF" stroke-miterlimit="10" d="M43.484,22.208c-0.15-0.511-0.532-0.776-1.049-0.847
			c-0.164-0.024-0.333-0.024-0.499-0.028c-0.479-0.008-0.956-0.013-1.435-0.019c-2.626-0.036-5.256-0.07-7.884-0.108
			c-0.255-0.005-0.528,0.055-0.782-0.131c-0.045-0.118-0.102-0.249-0.141-0.383c-0.889-2.853-1.77-5.704-2.65-8.555
			c-0.086-0.274-0.168-0.549-0.268-0.817c-0.232-0.603-0.639-0.901-1.246-0.89c-0.564,0.012-1.023,0.222-1.242,0.791
			c-0.041,0.113-0.098,0.219-0.135,0.333c-0.491,1.446-0.979,2.896-1.465,4.342c-0.521,1.54-1.04,3.079-1.561,4.618
			c-0.064,0.203-0.125,0.416-0.395,0.56l-0.727-0.01c-2.988-0.04-5.973-0.081-8.958-0.119c-0.263-0.002-0.529-0.016-0.786,0.024
			c-0.961,0.148-1.395,1.152-0.855,1.962c0.09,0.136,0.213,0.258,0.341,0.362c0.221,0.182,0.457,0.347,0.686,0.517
			c2.396,1.784,4.788,3.568,7.183,5.351c0.131,0.1,0.251,0.214,0.41,0.349c-0.057,0.207-0.105,0.414-0.169,0.613
			c-0.356,1.039-0.717,2.076-1.073,3.116c-0.635,1.852-1.267,3.705-1.894,5.56c-0.1,0.293-0.19,0.598-0.222,0.901
			c-0.105,1.046,0.986,1.647,1.786,1.241c0.171-0.088,0.332-0.189,0.489-0.301c1.837-1.291,3.671-2.585,5.506-3.877
			c0.898-0.631,1.8-1.261,2.756-1.929c0.317,0.233,0.59,0.428,0.855,0.627c2.413,1.799,4.825,3.597,7.242,5.392
			c0.173,0.128,0.353,0.243,0.543,0.344c0.755,0.403,1.875-0.22,1.788-1.269c-0.016-0.164-0.062-0.329-0.11-0.488
			c-0.182-0.593-0.375-1.184-0.557-1.776c-0.378-1.21-0.75-2.418-1.119-3.628c-0.406-1.3-0.809-2.599-1.21-3.9
			c-0.041-0.134-0.061-0.274-0.095-0.448c0.176-0.135,0.342-0.268,0.513-0.39c2.44-1.72,4.884-3.438,7.321-5.157
			c0.256-0.179,0.521-0.346,0.748-0.556C43.533,23.211,43.639,22.729,43.484,22.208z M37.791,24.209
			c-1.188,0.842-2.383,1.678-3.575,2.518c-0.603,0.428-1.213,0.847-1.815,1.28c-0.636,0.46-0.815,0.924-0.595,1.681
			c0.321,1.099,0.665,2.192,1.006,3.287c0.285,0.913,0.579,1.821,0.864,2.732c0.061,0.199,0.091,0.407,0.129,0.594
			c-0.203,0.16-0.299-0.004-0.398-0.075c-1.113-0.822-2.225-1.651-3.335-2.48c-0.591-0.441-1.188-0.887-1.782-1.324
			c-0.782-0.573-1.304-0.584-2.09-0.029c-1.686,1.176-3.363,2.362-5.042,3.542c-0.152,0.107-0.309,0.208-0.442,0.299
			c-0.19-0.115-0.12-0.237-0.086-0.339c0.329-0.997,0.658-1.995,0.996-2.989c0.313-0.93,0.637-1.852,0.954-2.779
			c0.061-0.182,0.117-0.364,0.167-0.549c0.216-0.806,0.069-1.248-0.595-1.746c-0.801-0.604-1.611-1.201-2.414-1.799
			c-0.863-0.641-1.725-1.282-2.586-1.928c-0.15-0.112-0.288-0.24-0.416-0.347c0.02-0.208,0.158-0.199,0.267-0.198
			c0.716,0.005,1.434,0.014,2.149,0.025c1.434,0.018,2.867,0.041,4.303,0.055c1.111,0.013,1.406-0.208,1.77-1.276
			c0.676-1.989,1.354-3.979,2.035-5.967c0.04-0.11,0.096-0.214,0.199-0.446c0.102,0.195,0.157,0.271,0.187,0.354
			c0.468,1.531,0.937,3.063,1.403,4.59c0.189,0.616,0.38,1.233,0.575,1.848c0.207,0.643,0.647,0.982,1.329,0.999
			c0.189,0.002,0.381,0.007,0.573,0.009l6.417,0.087C38.067,24.081,37.898,24.136,37.791,24.209z"/>
	</g>
</g>
</svg>
