<?xml version="1.0" encoding="utf-8"?>
<!-- Generator: Adobe Illustrator 16.0.0, SVG Export Plug-In . SVG Version: 6.00 Build 0)  -->
<!DOCTYPE svg PUBLIC "-//W3C//DTD SVG 1.1//EN" "http://www.w3.org/Graphics/SVG/1.1/DTD/svg11.dtd">
<svg version="1.1" id="Layer_1" xmlns="http://www.w3.org/2000/svg" xmlns:xlink="http://www.w3.org/1999/xlink" x="0px" y="0px"
	 width="54px" height="54px" viewBox="0 0 54 54" enable-background="new 0 0 54 54" xml:space="preserve">
<path fill="#53AE94" d="M27,0c5.34,0,10.561,1.583,15,4.55c4.44,2.967,7.901,7.184,9.945,12.117
	c2.043,4.934,2.578,10.362,1.536,15.6c-1.042,5.237-3.614,10.049-7.39,13.824c-3.775,3.776-8.587,6.348-13.824,7.39
	c-5.238,1.042-10.667,0.507-15.6-1.536C11.734,49.901,7.517,46.44,4.55,42C1.583,37.561,0,32.34,0,27
	c0-7.161,2.845-14.028,7.909-19.091C12.972,2.845,19.839,0,27,0z"/>
</svg>
